:SAMPLES-PER-SECOND 30
:FULLY-SPECIFIED
:DEGREES
232
root  -2.06501 39.2914 -1.03124 78.8001 -83.6386 -87.4908
RightUpLeg  1.73114 -2.52362 7.79868
RightLeg  19.4607 -26.0531 -6.29899
RightFoot  -11.0192 -0.0791606 1.60887
RightToes  -3.1126e-008 1.75238e-005 3.56266e-009
Spine  -10.4643 -2.03825 19.1396
Spine1  23.6107 -5.24131 5.82774
HEad  22.8735 3.62973 8.28486
LeftShoulder1  2.41291 -7.0485 -16.1289
LeftArm  -17.2117 31.9413 -69.9423
LeftForeArm  77.9425 -26.1483 -2.07852
LeftHand  -0.426725 -5.31672 4.93502
RightShoulder  0.18297 -1.57115 1.18532
RightArm  -16.006 74.7017 31.806
RightForeArm  24.5937 39.6335 7.71245
RightHand  -0.140131 3.10856 -1.94172
LeftUpLeg  -8.91544 9.73603 13.0466
LeftLeg  38.4588 0.630755 0.894515
LeftFoot  -9.68064 0.187235 -8.89833
LeftToes  4.78349e-008 1.46828e-008 1.33736e-009
233
root  -2.13221 39.2744 -1.04759 75.0154 -83.457 -83.6009
RightUpLeg  1.72149 -2.55449 7.94614
RightLeg  19.5619 -26.445 -6.39543
RightFoot  -11.2046 -0.0781815 1.84649
RightToes  -3.1126e-008 1.75238e-005 3.56266e-009
Spine  -11.5473 -2.06558 18.7514
Spine1  23.8687 -5.62371 6.4335
HEad  22.2529 3.22682 7.96024
LeftShoulder1  2.41929 -7.04548 -16.2014
LeftArm  -17.2068 31.4396 -69.8189
LeftForeArm  75.7171 -26.4559 -2.19647
LeftHand  -0.434006 -4.9114 5.18922
RightShoulder  0.205669 -1.33442 1.18315
RightArm  -14.5616 74.6634 32.3145
RightForeArm  20.2948 39.9353 8.08117
RightHand  0.595685 1.84118 9.62065
LeftUpLeg  -8.94484 9.55787 13.1777
LeftLeg  38.3925 0.425835 0.718449
LeftFoot  -10.0347 0.158112 -8.59552
LeftToes  4.78349e-008 1.46828e-008 1.33736e-009
234
root  -2.20623 39.2576 -1.0682 72.2347 -83.2058 -80.7962
RightUpLeg  1.81329 -2.52561 8.1665
RightLeg  19.6359 -26.8589 -6.45043
RightFoot  -11.3413 -0.0768963 1.8523
RightToes  -3.1126e-008 1.75238e-005 3.56266e-009
Spine  -11.8371 -2.0053 18.9747
Spine1  23.2085 -5.53748 6.26635
HEad  21.0805 3.08611 7.76003
LeftShoulder1  2.37966 -6.93918 -16.0432
LeftArm  -17.0963 31.2802 -69.6467
LeftForeArm  73.6829 -26.5316 -2.2651
LeftHand  -0.423139 -4.59312 5.20757
RightShoulder  0.222809 -1.2783 1.79759
RightArm  -12.9959 74.7854 32.8031
RightForeArm  14.6869 39.7641 8.39204
RightHand  0.863859 -0.454597 20.361
LeftUpLeg  -8.87623 9.31139 13.3858
LeftLeg  38.3292 0.316578 0.62483
LeftFoot  -10.4291 0.129799 -8.44971
LeftToes  4.78349e-008 1.46828e-008 1.33736e-009
235
root  -2.30882 39.2465 -1.09877 69.2463 -83.0155 -77.7471
RightUpLeg  1.96211 -2.51116 8.34281
RightLeg  19.6012 -27.2901 -6.52449
RightFoot  -11.4752 -0.0755701 1.84792
RightToes  -3.1126e-008 1.75238e-005 3.56266e-009
Spine  -12.4196 -1.95831 18.7584
Spine1  22.7448 -5.62172 6.56837
HEad  19.4977 2.88442 7.42832
LeftShoulder1  2.42933 -6.96143 -16.5054
LeftArm  -17.8284 31.2091 -69.3026
LeftForeArm  72.7381 -26.2376 -2.23355
LeftHand  -0.506737 -4.7486 6.09833
RightShoulder  0.237969 -1.15998 1.96953
RightArm  -10.8106 74.7787 35.0161
RightForeArm  12.3571 38.8963 8.27123
RightHand  0.917066 -1.72876 28.5745
LeftUpLeg  -8.84901 8.91789 13.4804
LeftLeg  38.3064 0.311106 0.619558
LeftFoot  -10.7247 0.108795 -8.30089
LeftToes  4.78349e-008 1.46828e-008 1.33736e-009
236
root  -2.40151 39.22 -1.12076 66.4516 -82.8181 -74.8177
RightUpLeg  1.92302 -2.51381 8.51584
RightLeg  19.772 -27.653 -6.73877
RightFoot  -11.6676 -0.0734161 2.01715
RightToes  -3.1126e-008 1.75238e-005 3.56266e-009
Spine  -13.0688 -1.81427 18.3591
Spine1  22.3318 -5.70431 7.28948
HEad  18.0698 2.46563 7.14761
LeftShoulder1  2.53129 -7.09513 -17.2357
LeftArm  -18.4424 31.1711 -68.7786
LeftForeArm  72.2309 -25.9687 -2.19405
LeftHand  -0.580181 -4.61666 7.01822
RightShoulder  0.27291 -0.820438 1.95321
RightArm  -10.6887 73.9257 36.1551
RightForeArm  12.3672 38.7223 8.2172
RightHand  0.769677 -2.24655 28.7222
LeftUpLeg  -9.08235 8.6785 13.5891
LeftLeg  38.5827 0.144802 0.48063
LeftFoot  -10.9256 0.0960006 -8.42617
LeftToes  4.78349e-008 1.46828e-008 1.33736e-009
237
root  -2.49921 39.2144 -1.13359 64.8553 -82.7485 -73.2012
RightUpLeg  2.09893 -2.63097 8.50433
RightLeg  19.7324 -27.7642 -6.69413
RightFoot  -11.8093 -0.0713349 2.00173
RightToes  -3.1126e-008 1.75238e-005 3.56266e-009
Spine  -13.9507 -1.56238 18.4225
Spine1  22.4773 -5.45331 7.03462
HEad  16.576 1.86387 6.90162
LeftShoulder1  2.52451 -7.11334 -17.1194
LeftArm  -19.0466 30.7354 -68.8402
LeftForeArm  72.2232 -25.0077 -2.04438
LeftHand  -0.605512 -4.88085 7.13953
RightShoulder  0.340103 -0.379599 2.80723
RightArm  -12.5527 73.2702 35.9635
RightForeArm  14.0849 38.3621 8.00088
RightHand  0.666977 -2.05119 23.8938
LeftUpLeg  -9.02648 8.41389 13.6035
LeftLeg  38.6648 0.134036 0.471816
LeftFoot  -11.0445 0.0880195 -8.47391
LeftToes  4.78349e-008 1.46828e-008 1.33736e-009
238
root  -2.59199 39.2184 -1.16337 66.118 -82.856 -74.5299
RightUpLeg  2.3629 -2.62663 8.51544
RightLeg  19.6266 -27.611 -6.63074
RightFoot  -11.9287 -0.0669846 1.94797
RightToes  -3.1126e-008 1.75238e-005 3.56266e-009
Spine  -14.2162 -1.2257 18.4326
Spine1  22.0803 -5.04823 6.9063
HEad  15.2082 1.6112 6.57155
LeftShoulder1  2.46088 -6.93003 -16.9118
LeftArm  -19.5675 30.6658 -69.0819
LeftForeArm  71.9427 -24.2696 -2.05199
LeftHand  -0.608166 -5.06074 7.05539
RightShoulder  0.357616 -0.356083 3.33972
RightArm  -12.9517 73.2742 38.4974
RightForeArm  16.0608 36.9974 7.47645
RightHand  0.683309 -0.799101 17.473
LeftUpLeg  -8.71068 8.51799 13.7043
LeftLeg  38.61 0.0615885 0.409506
LeftFoot  -11.1233 0.0833377 -8.82202
LeftToes  4.78349e-008 1.46828e-008 1.33736e-009
239
root  -2.69254 39.2282 -1.18838 66.9538 -82.9261 -75.4464
RightUpLeg  2.68347 -2.62666 8.52257
RightLeg  19.4608 -27.5236 -6.52996
RightFoot  -12.0324 -0.0656967 1.93062
RightToes  -3.1126e-008 1.75238e-005 3.56266e-009
Spine  -14.8016 -0.980013 18.7542
Spine1  22.1233 -4.70729 6.30204
HEad  14.0023 1.2825 5.96886
LeftShoulder1  2.51855 -7.00209 -17.3329
LeftArm  -19.6616 30.7577 -68.4797
LeftForeArm  70.7545 -23.8666 -2.13074
LeftHand  -0.547468 -4.77287 6.54331
RightShoulder  0.388268 -0.135856 3.52657
RightArm  -12.95 73.2812 41.9504
RightForeArm  17.5027 35.276 6.90924
RightHand  0.498861 0.318985 10.1883
LeftUpLeg  -8.39395 8.60923 13.8056
LeftLeg  38.563 0.00332707 0.359739
LeftFoot  -11.166 0.0805374 -8.97044
LeftToes  4.78349e-008 1.46828e-008 1.33736e-009
240
root  -2.78821 39.227 -1.20459 68.498 -83.1341 -77.0171
RightUpLeg  2.81508 -2.64178 8.43263
RightLeg  19.5673 -27.2338 -6.60627
RightFoot  -12.2165 -0.0682197 1.94225
RightToes  -3.1126e-008 1.75238e-005 3.56266e-009
Spine  -15.0025 -0.707155 19.1379
Spine1  21.5888 -4.1705 5.54478
HEad  13.5723 1.2867 5.44734
LeftShoulder1  2.55121 -6.96025 -17.7745
LeftArm  -21.0348 30.8414 -68.0093
LeftForeArm  71.0252 -23.1294 -2.27519
LeftHand  -0.450015 -4.92001 5.36732
RightShoulder  0.401994 -0.0493482 3.64133
RightArm  -11.6061 73.0148 45.6006
RightForeArm  19.0347 33.4223 6.32503
RightHand  0.236732 1.61162 3.75309
LeftUpLeg  -8.17181 8.6888 13.7283
LeftLeg  38.6067 0.0549941 0.404243
LeftFoot  -11.1466 0.0819248 -8.98039
LeftToes  4.78349e-008 1.46828e-008 1.33736e-009
241
root  -2.88902 39.2236 -1.22542 68.9145 -83.1062 -77.3918
RightUpLeg  2.95122 -2.55012 8.58233
RightLeg  19.5085 -27.3275 -6.68549
RightFoot  -12.2934 -0.0682593 1.80959
RightToes  -3.1126e-008 1.75238e-005 3.56266e-009
Spine  -15.6969 -0.4585 19.3875
Spine1  21.5816 -3.88493 5.12882
HEad  13.2503 1.03169 5.58813
LeftShoulder1  2.56961 -6.93522 -18.0285
LeftArm  -22.6216 30.8405 -67.8279
LeftForeArm  72.6151 -22.1873 -2.49947
LeftHand  -0.462982 -5.17153 5.39429
RightShoulder  0.354259 -0.396092 3.37267
RightArm  -8.48633 72.8137 48.3947
RightForeArm  19.4036 32.2852 6.01541
RightHand  -0.0285535 2.4058 -0.714131
LeftUpLeg  -8.07882 8.61748 13.8377
LeftLeg  38.6788 0.0614876 0.410253
LeftFoot  -11.2248 0.076516 -9.19624
LeftToes  4.78349e-008 1.46828e-008 1.33736e-009
